<svg xmlns="http://www.w3.org/2000/svg" viewBox="0 0 105.4 60.52"><defs><style>.cls-1{fill:#f2f2f2;}.cls-2{font-size:6px;font-family:MyriadPro-Regular, Myriad Pro;}.cls-3{letter-spacing:0em;}.cls-4{letter-spacing:0em;}.cls-5{fill:#baddb0;}.cls-5,.cls-6{stroke:#000;stroke-width:0.25px;}.cls-5,.cls-6,.cls-7{stroke-miterlimit:10;}.cls-6{fill:#7cc174;}.cls-7{fill:none;stroke:#404041;}.cls-8{fill:#404041;}</style></defs><title>Asset 7</title><g id="Layer_2" data-name="Layer 2"><g id="Layer_2-2" data-name="Layer 2"><rect class="cls-1" width="105.4" height="60.52"/><text class="cls-2" transform="translate(12.13 9.72)">1 time poi<tspan class="cls-3" x="25.13" y="0">n</tspan><tspan x="28.44" y="0">t</tspan></text><text class="cls-2" transform="translate(58.86 9.72)">&gt;2 time poi<tspan class="cls-3" x="28.71" y="0">n</tspan><tspan class="cls-4" x="32.02" y="0">ts</tspan></text><circle class="cls-5" cx="26.48" cy="35.67" r="21.81"/><path class="cls-6" d="M48.29,35.67H4.67a21.81,21.81,0,0,1,43.62,0Z"/><rect class="cls-5" x="54.78" y="13.86" width="43.65" height="43.65" rx="12" ry="12"/><path class="cls-6" d="M54.78,35.68V22.17a8.34,8.34,0,0,1,8.31-8.31h27a8.34,8.34,0,0,1,8.31,8.31V35.68Z"/><polyline class="cls-7" points="58.26 28.75 68.2 26.2 78 27.34 86.76 22.14 94.94 29.73"/><circle class="cls-8" cx="58.76" cy="28.6" r="2.14"/><circle class="cls-8" cx="78.05" cy="27.16" r="2.14"/><circle class="cls-8" cx="68.11" cy="26.22" r="2.14"/><circle class="cls-8" cx="86.86" cy="22.14" r="2.14"/><circle class="cls-8" cx="94.94" cy="29.73" r="2.14"/><polyline class="cls-7" points="58.26 48.15 68.2 45.6 78 46.74 86.76 41.54 94.94 49.13"/><circle class="cls-8" cx="58.76" cy="48" r="2.14"/><circle class="cls-8" cx="78.05" cy="46.56" r="2.14"/><circle class="cls-8" cx="68.11" cy="45.62" r="2.14"/><circle class="cls-8" cx="86.86" cy="41.54" r="2.14"/><circle class="cls-8" cx="94.94" cy="49.13" r="2.14"/></g></g></svg>