<svg xmlns="http://www.w3.org/2000/svg" viewBox="0 0 43.9 43.9"><defs><style>.cls-1{fill:#f5d7c5;}.cls-1,.cls-2{stroke:#000;stroke-width:0.25px;}.cls-1,.cls-2,.cls-3{stroke-miterlimit:10;}.cls-2{fill:#e5a084;}.cls-3{fill:none;stroke:#404041;}.cls-4{fill:#404041;}</style></defs><title>Layer 2 (2)</title><g id="Layer_2" data-name="Layer 2"><g id="Layer_1-2" data-name="Layer 1"><g id="Layer_2-2" data-name="Layer 2"><g id="Layer_2-2-2" data-name="Layer 2-2"><rect class="cls-1" x="0.13" y="0.13" width="43.65" height="43.65" rx="12" ry="12"/><path class="cls-2" d="M.12,22V8.44A8.35,8.35,0,0,1,8.44.12h27a8.34,8.34,0,0,1,8.31,8.32V22Z"/><polyline class="cls-3" points="3.6 15.02 13.54 12.46 23.34 13.61 32.1 8.4 40.28 15.99"/><circle class="cls-4" cx="4.1" cy="14.87" r="2.14"/><circle class="cls-4" cx="23.4" cy="13.43" r="2.14"/><circle class="cls-4" cx="13.46" cy="12.48" r="2.14"/><circle class="cls-4" cx="32.21" cy="8.4" r="2.14"/><circle class="cls-4" cx="40.29" cy="15.99" r="2.14"/><polyline class="cls-3" points="3.6 34.41 13.54 31.86 23.34 33.01 32.1 27.8 40.28 35.4"/><circle class="cls-4" cx="4.1" cy="34.27" r="2.14"/><circle class="cls-4" cx="23.4" cy="32.83" r="2.14"/><circle class="cls-4" cx="13.46" cy="31.88" r="2.14"/><circle class="cls-4" cx="32.21" cy="27.81" r="2.14"/><circle class="cls-4" cx="40.29" cy="35.4" r="2.14"/></g></g></g></g></svg>